<?xml version="1.0" standalone="no"?>
<!DOCTYPE svg PUBLIC "-//W3C//DTD SVG 20010904//EN"
 "http://www.w3.org/TR/2001/REC-SVG-20010904/DTD/svg10.dtd">
<svg version="1.0" xmlns="http://www.w3.org/2000/svg"
 width="1500.000000pt" height="1500.000000pt" viewBox="0 0 1500.000000 1500.000000"
 preserveAspectRatio="xMidYMid meet">

<g transform="translate(0.000000,1500.000000) scale(0.100000,-0.100000)"
fill="#000000" stroke="none">
<path d="M0 7500 l0 -7500 7500 0 7500 0 0 7500 0 7500 -7500 0 -7500 0 0
-7500z m8000 5416 c1579 -155 2994 -1002 3883 -2326 183 -272 408 -698 521
-985 197 -504 318 -1032 357 -1563 15 -210 7 -758 -15 -937 -49 -413 -116
-724 -233 -1080 -363 -1112 -1099 -2087 -2063 -2734 -355 -239 -625 -382 -998
-532 -1238 -496 -2640 -500 -3877 -12 -688 271 -1283 661 -1805 1183 -269 268
-456 496 -666 810 -156 234 -232 367 -349 605 -278 568 -441 1140 -512 1795
-22 207 -25 815 -5 1010 135 1282 668 2400 1563 3275 630 616 1354 1043 2204
1300 341 103 838 188 1220 209 152 8 619 -3 775 -18z"/>
<path d="M7175 12824 c-22 -2 -96 -9 -165 -14 -1212 -104 -2409 -687 -3262
-1591 -686 -727 -1135 -1595 -1327 -2566 -65 -328 -93 -619 -93 -983 -1 -569
75 -1065 242 -1585 179 -553 441 -1058 795 -1530 447 -596 1054 -1116 1696
-1455 1036 -546 2167 -729 3316 -535 800 135 1566 468 2231 969 934 704 1605
1707 1896 2836 114 444 160 815 160 1290 0 301 -10 453 -45 710 -186 1354
-909 2583 -2009 3417 -614 465 -1336 791 -2085 942 -346 70 -575 92 -980 96
-181 2 -348 1 -370 -1z m159 -266 c23 -37 -23 -68 -80 -54 -27 7 -33 43 -12
64 18 18 79 11 92 -10z m264 -6 c5 -32 -15 -52 -52 -52 -37 0 -56 15 -56 45 0
31 9 36 60 33 38 -3 45 -6 48 -26z m260 -10 c7 -45 -41 -67 -89 -42 -19 10
-26 50 -12 64 4 4 28 6 53 4 38 -3 45 -6 48 -26z m-790 6 c32 -32 1 -68 -57
-68 -44 0 -62 49 -27 72 17 12 71 9 84 -4z m1046 -20 c21 -30 4 -58 -35 -58
-58 0 -89 36 -57 68 20 20 75 15 92 -10z m-1300 -20 c18 -29 -4 -53 -52 -56
-33 -2 -43 1 -52 17 -25 47 75 84 104 39z m1539 -2 c22 -5 27 -12 27 -36 0
-23 -5 -31 -25 -36 -37 -9 -79 9 -83 36 -4 25 21 51 41 45 7 -2 24 -6 40 -9z
m-1795 -63 c-6 -50 -108 -58 -108 -9 0 28 15 43 50 48 39 6 62 -9 58 -39z
m2072 2 c14 -8 13 -38 -2 -53 -15 -15 -53 -16 -79 -2 -23 13 -25 56 -2 68 15
9 58 2 83 -13z m-2336 -31 c9 -8 16 -22 16 -29 0 -20 -40 -45 -71 -45 -58 0
-63 63 -6 79 44 13 44 13 61 -5z m2570 -24 c29 -11 36 -50 12 -69 -26 -22 -96
6 -96 38 0 37 35 50 84 31z m-2814 -55 c18 -21 5 -44 -34 -60 -41 -17 -63 -12
-72 18 -13 43 76 78 106 42z m3064 -25 c18 -6 26 -17 26 -34 0 -37 -23 -50
-64 -36 -43 14 -50 23 -42 56 7 26 35 32 80 14z m-1624 -90 c0 -56 -3 -70 -15
-70 -12 0 -15 14 -15 70 0 56 3 70 15 70 12 0 15 -14 15 -70z m-1699 40 c43
-23 5 -80 -53 -80 -53 0 -55 50 -3 78 25 14 32 14 56 2z m2155 -5 c11 -28 -6
-125 -22 -125 -16 0 -17 22 -8 94 7 46 20 59 30 31z m-912 -41 c9 -71 7 -94
-8 -94 -14 0 -26 49 -26 108 0 51 26 41 34 -14z m2342 -5 c36 -29 4 -75 -46
-64 -69 15 -73 93 -3 82 19 -3 41 -11 49 -18z m-966 -16 c-3 -41 -28 -128 -38
-128 -16 0 -16 1 -7 65 8 64 11 70 31 70 8 0 14 -3 14 -7z m-1824 -68 c9 -44
9 -62 1 -67 -17 -11 -24 -2 -31 44 -4 24 -10 54 -13 66 -5 19 -2 23 13 20 13
-2 21 -18 30 -63z m-1032 29 c9 -8 16 -18 16 -20 0 -18 -24 -44 -50 -53 -26
-9 -34 -7 -50 9 -23 23 -17 45 19 65 34 18 46 18 65 -1z m4044 -44 c62 -38 26
-95 -43 -66 -37 16 -48 49 -23 74 16 16 28 15 66 -8z m-744 -36 c-1 -5 -9 -35
-18 -66 -16 -55 -28 -69 -40 -49 -5 8 19 105 31 124 6 10 28 2 27 -9z m-2710
-58 c20 -61 20 -76 1 -76 -19 0 -57 122 -41 132 15 10 21 1 40 -56z m-833 34
c27 -15 24 -45 -7 -69 -30 -24 -54 -27 -72 -9 -21 21 -13 48 21 68 38 23 33
23 58 10z m4519 -55 c36 -19 41 -58 9 -75 -16 -9 -27 -7 -52 7 -35 21 -45 46
-27 68 16 19 34 19 70 0z m-4732 -97 c4 -31 -28 -58 -69 -58 -46 0 -50 56 -6
78 38 19 72 11 75 -20z m4192 22 c0 -18 -49 -120 -58 -120 -18 0 -20 13 -5 48
8 20 19 47 24 60 8 21 39 32 39 12z m-3555 -131 c-12 -19 -23 -7 -49 53 -21
48 -24 63 -14 70 9 6 21 -9 41 -53 15 -33 25 -64 22 -70z m2040 121 c761 -54
1423 -278 2075 -702 465 -302 958 -809 1256 -1291 400 -646 614 -1341 642
-2082 33 -858 -169 -1644 -612 -2380 -173 -287 -377 -547 -631 -801 -240 -241
-472 -427 -747 -599 -165 -103 -490 -270 -660 -339 -945 -382 -1991 -415
-2955 -91 -1254 422 -2247 1407 -2675 2655 -100 292 -164 576 -205 910 -25
208 -25 745 0 950 105 845 424 1592 956 2239 132 161 420 447 581 577 655 528
1396 840 2215 933 275 32 518 38 760 21z m2289 -51 c54 -43 14 -97 -47 -62
-35 21 -45 46 -27 68 17 21 43 19 74 -6z m-5200 -75 c23 -22 20 -40 -11 -64
-38 -29 -77 -24 -81 12 -3 22 3 32 30 48 40 24 42 24 62 4z m4846 -63 c0 -3
-15 -32 -33 -63 -23 -40 -37 -54 -46 -49 -19 12 43 133 64 125 8 -4 15 -9 15
-13z m571 -2 c31 -21 37 -47 17 -67 -18 -18 -42 -15 -72 9 -28 22 -33 48 -14
67 17 17 36 15 69 -9z m-4971 -68 c23 -47 26 -60 15 -64 -9 -4 -24 13 -44 48
-35 61 -38 75 -16 75 8 0 28 -27 45 -59z m-662 -13 c20 -20 14 -55 -13 -72
-34 -22 -62 -20 -76 6 -10 19 -8 25 20 50 34 31 51 34 69 16z m5838 -69 c38
-23 46 -62 17 -77 -22 -11 -41 -6 -70 21 -27 24 -29 40 -7 61 20 20 20 20 60
-5z m-6042 -95 c22 -21 20 -31 -9 -60 -33 -33 -78 -30 -83 6 -3 17 4 31 25 47
33 27 46 28 67 7z m5656 6 c0 -22 -71 -109 -86 -103 -15 6 -14 9 29 71 28 39
57 55 57 32z m-5160 -95 c10 -18 11 -28 3 -36 -8 -8 -23 6 -52 49 -27 41 -37
62 -28 65 13 6 55 -38 77 -78z m5759 11 c49 -52 -3 -104 -55 -55 -23 21 -32
58 -17 72 14 15 51 6 72 -17z m-6455 -92 c23 -23 20 -39 -15 -68 -36 -30 -42
-31 -63 -10 -22 22 -20 34 11 66 31 32 45 35 67 12z m6650 -85 c30 -36 31 -42
10 -63 -22 -23 -36 -20 -67 12 -31 32 -34 57 -9 71 27 16 39 13 66 -20z m-427
-16 c6 -18 -84 -109 -96 -98 -7 7 3 26 32 63 40 49 56 59 64 35z m-5909 -64
c38 -47 45 -69 22 -69 -15 0 -92 99 -85 110 11 18 20 11 63 -41z m-504 -15
c23 -22 20 -36 -13 -68 -20 -20 -35 -26 -49 -22 -41 13 -35 59 10 90 28 20 33
20 52 0z m7025 -88 c29 -31 23 -76 -11 -76 -42 0 -87 68 -61 93 14 15 51 6 72
-17z m-7205 -102 c21 -21 20 -36 -5 -68 -15 -20 -29 -26 -48 -24 -37 4 -41 49
-7 83 29 29 39 31 60 9z m6930 -42 c3 -5 -16 -30 -43 -56 -40 -39 -50 -45 -60
-33 -9 12 -3 22 35 56 48 42 59 47 68 33z m-6542 -124 c-18 -18 -117 80 -100
99 9 12 21 5 62 -36 40 -40 48 -53 38 -63z m6985 80 c38 -35 27 -88 -17 -88
-15 0 -60 53 -60 70 0 20 19 40 39 40 8 0 25 -10 38 -22z m-7546 -108 c25 -14
24 -41 -2 -74 -15 -20 -29 -26 -48 -24 -37 4 -40 45 -7 81 28 30 30 31 57 17z
m7729 -123 c12 -21 12 -28 1 -41 -30 -36 -91 -1 -91 53 0 50 59 42 90 -12z
m-312 -81 c-2 -1 -26 -21 -54 -44 -43 -35 -54 -39 -63 -28 -17 20 85 102 106
85 7 -7 12 -13 11 -13z m-7570 -8 c28 -28 -5 -98 -46 -98 -45 0 -51 45 -11 88
22 25 39 28 57 10z m382 -48 c30 -26 42 -42 35 -49 -12 -12 -119 65 -110 80
11 17 29 9 75 -31z m7639 -56 c12 -15 21 -35 21 -45 0 -22 -32 -41 -54 -33
-32 12 -58 78 -39 97 15 16 53 5 72 -19z m-8159 -124 c8 -15 7 -27 -5 -49 -19
-38 -30 -44 -61 -37 -31 8 -32 43 -3 80 24 31 54 34 69 6z m8303 -99 c22 -38
22 -58 -3 -71 -27 -14 -54 1 -70 40 -10 24 -10 33 0 45 20 24 54 18 73 -14z
m-334 -25 c9 -10 0 -21 -44 -50 -50 -33 -81 -40 -73 -15 2 6 89 72 104 78 1 1
7 -5 13 -13z m-7721 -62 c47 -31 65 -59 37 -54 -28 5 -112 65 -108 77 7 19 12
17 71 -23z m-378 -58 c0 -23 -41 -76 -59 -76 -9 0 -41 27 -41 35 0 17 37 75
49 78 26 6 51 -12 51 -37z m8539 -56 c10 -5 24 -24 31 -41 13 -29 12 -33 -9
-50 -27 -22 -47 -16 -66 22 -20 37 -19 56 3 68 21 13 20 13 41 1z m-8668 -156
c11 -13 10 -22 -6 -52 -38 -71 -102 -41 -71 33 11 26 21 35 39 35 14 0 31 -7
38 -16z m8463 -69 c8 -21 -113 -83 -125 -63 -6 9 9 22 54 45 34 18 63 32 63
33 1 0 4 -7 8 -15z m340 -27 c31 -44 10 -97 -32 -84 -30 10 -55 80 -35 99 14
15 53 6 67 -15z m-8464 -66 c0 -21 -17 -19 -71 9 -56 28 -67 38 -53 52 8 7
124 -50 124 -61z m-456 -68 c9 -8 16 -21 16 -27 0 -21 -39 -77 -54 -77 -12 0
-46 25 -46 34 0 15 32 75 42 79 21 9 26 8 42 -9z m9030 -119 c17 -41 13 -62
-15 -70 -24 -8 -43 6 -59 45 -15 36 -1 60 36 60 18 0 27 -9 38 -35z m-9124
-130 c16 -19 2 -73 -23 -89 -27 -17 -52 5 -50 43 2 55 44 81 73 46z m8862 -27
c-14 -13 -114 -48 -123 -43 -19 13 -7 24 54 48 44 18 64 22 69 14 4 -7 4 -15
0 -19z m-8505 -56 c7 -4 9 -13 5 -19 -6 -10 -21 -8 -62 8 -69 26 -70 27 -64
44 5 12 14 11 57 -6 28 -11 57 -24 64 -27z m8841 -5 c6 -7 16 -25 21 -40 9
-23 7 -31 -9 -47 -26 -26 -53 -13 -69 31 -14 39 -14 35 5 53 19 19 38 20 52 3z
m-9278 -162 c10 -12 10 -23 -2 -53 -12 -31 -18 -37 -43 -37 -24 0 -31 5 -33
23 -6 39 17 82 43 82 12 0 28 -7 35 -15z m9364 -97 c23 -32 20 -75 -5 -88 -26
-14 -54 8 -62 48 -11 56 36 84 67 40z m-276 -105 c-2 -12 -23 -23 -66 -35 -34
-9 -62 -12 -62 -7 0 5 0 12 -1 16 0 7 94 40 119 42 8 1 12 -7 10 -16z m-8787
-66 c-1 -4 -1 -11 -1 -16 0 -7 -117 15 -129 25 -2 2 -1 10 2 17 5 13 14 12 67
-2 34 -9 61 -20 61 -24z m-371 18 c18 -22 -3 -91 -30 -98 -30 -8 -53 20 -46
56 11 55 49 75 76 42z m9508 -142 c3 -43 -13 -59 -48 -48 -32 10 -41 88 -12
104 28 16 57 -10 60 -56z m-9558 -146 c0 -44 -20 -70 -51 -65 -20 2 -24 9 -27
45 -2 33 1 44 19 57 32 22 59 5 59 -37z m9600 -67 c16 -29 8 -81 -13 -94 -37
-22 -78 69 -45 102 18 18 46 14 58 -8z m-290 -44 c0 -20 -7 -23 -72 -31 -49
-6 -58 -5 -58 8 0 11 16 18 53 25 74 14 77 14 77 -2z m-9032 -42 c43 -6 52
-10 52 -26 0 -16 -5 -19 -22 -15 -13 3 -44 9 -70 12 -31 5 -48 12 -48 21 0 16
12 17 88 8z m-334 -70 c17 -16 19 -35 10 -71 -7 -25 -29 -36 -55 -28 -26 9
-27 89 -1 104 23 14 28 14 46 -5z m9683 -92 c29 -18 27 -94 -3 -106 -32 -12
-54 12 -54 59 0 49 24 68 57 47z m-9716 -162 c35 -19 19 -110 -19 -110 -10 0
-23 5 -30 12 -17 17 -15 74 4 92 18 19 20 19 45 6z m9459 -94 c0 -14 -49 -26
-107 -26 -41 0 -45 27 -5 33 65 10 112 7 112 -7z m288 -8 c20 -20 15 -86 -7
-98 -25 -13 -27 -13 -45 6 -19 18 -21 75 -4 92 7 7 19 12 28 12 9 0 21 -5 28
-12z m-9432 -28 c41 0 54 -4 54 -15 0 -12 -14 -15 -70 -15 -65 0 -70 2 -70 21
0 15 4 19 16 15 9 -3 40 -6 70 -6z m-314 -155 c22 -48 -22 -114 -56 -86 -16
14 -23 91 -9 104 16 17 54 6 65 -18z m9757 -79 c19 -23 10 -136 -11 -150 -32
-20 -53 4 -56 64 -4 76 3 100 32 100 13 0 29 -6 35 -14z m-289 -101 c0 -12
-14 -15 -70 -15 -64 0 -81 6 -63 23 3 4 35 7 70 7 49 0 63 -3 63 -15z m-9466
-98 c13 -37 -3 -62 -40 -62 -26 0 -29 4 -32 33 -5 50 4 64 35 60 20 -2 30 -11
37 -31z m356 -31 c0 -17 -31 -26 -92 -26 -35 0 -48 4 -48 14 0 16 24 23 93 25
34 1 47 -3 47 -13z m9388 -78 c20 -20 15 -86 -8 -98 -33 -18 -60 4 -60 48 0
40 14 62 40 62 9 0 21 -5 28 -12z m-9739 -122 c7 -8 11 -32 9 -53 -2 -31 -7
-39 -26 -41 -32 -5 -52 15 -52 52 0 50 42 75 69 42z m9418 -106 c18 0 24 -5
21 -17 -3 -14 -12 -17 -43 -15 -69 5 -95 13 -95 29 0 13 8 15 46 9 26 -3 58
-6 71 -6z m294 -30 c37 -20 17 -110 -25 -110 -37 0 -52 90 -18 109 21 13 20
13 43 1z m-9321 -115 c0 -14 -28 -22 -100 -27 -26 -2 -35 1 -35 12 0 10 14 17
45 21 78 10 90 10 90 -6z m-360 -15 c6 -12 10 -35 8 -53 -2 -25 -8 -33 -26
-35 -13 -2 -30 2 -38 8 -14 13 -20 81 -7 93 14 15 53 6 63 -13z m9647 -128
c24 -15 20 -88 -7 -102 -48 -26 -80 37 -44 88 16 23 31 27 51 14z m-9607 -132
c6 -12 10 -35 8 -53 -2 -25 -8 -33 -27 -35 -15 -3 -30 3 -38 14 -14 19 -18 76
-6 87 14 15 53 6 63 -13z m9248 -30 c50 -12 63 -22 42 -35 -5 -3 -37 0 -70 7
-47 9 -60 16 -60 31 0 13 5 17 18 14 9 -3 41 -11 70 -17z m321 -108 c11 -20 5
-59 -12 -79 -15 -20 -55 -16 -62 7 -19 59 47 122 74 72z m-9171 -29 c-2 -11
-21 -21 -53 -30 -64 -16 -75 -16 -75 2 0 8 17 19 43 25 23 6 47 13 52 15 23 8
36 4 33 -12z m-349 -76 c18 -23 25 -75 11 -92 -25 -30 -64 -9 -75 41 -10 48
36 84 64 51z m9449 -139 c18 -18 14 -63 -7 -89 -16 -20 -23 -22 -38 -13 -24
15 -28 59 -8 90 17 26 35 30 53 12z m-365 -89 c34 -10 47 -18 47 -32 0 -13 -5
-17 -19 -12 -10 3 -38 11 -62 18 -29 8 -45 19 -47 31 -3 14 1 18 14 14 11 -3
40 -12 67 -19z m-9002 -59 c10 -31 9 -43 -1 -55 -32 -38 -89 16 -76 71 5 19
13 24 36 24 25 0 31 -5 41 -40z m393 -80 c-5 -5 -35 -18 -67 -29 -55 -19 -57
-19 -57 -1 0 13 15 23 58 38 54 19 89 15 66 -8z m8900 -26 c19 -18 19 -22 5
-62 -23 -65 -88 -46 -75 22 9 50 42 68 70 40z m-9230 -107 c25 -18 27 -85 4
-100 -38 -25 -84 59 -52 94 20 23 25 23 48 6z m8789 -161 c32 -14 52 -46 28
-46 -17 0 -121 50 -121 58 0 24 9 23 93 -12z m361 12 c8 -13 6 -26 -7 -53 -14
-30 -22 -36 -45 -33 -21 2 -28 9 -30 31 -7 60 53 100 82 55z m-9044 -103 c34
-41 3 -115 -37 -89 -21 13 -38 66 -30 88 8 20 51 21 67 1z m398 -23 c2 -6 -22
-23 -53 -37 -65 -29 -75 -30 -75 -12 0 13 98 68 114 63 6 -1 11 -7 14 -14z
m8536 -108 c19 -19 19 -14 1 -58 -13 -30 -20 -36 -44 -36 -47 0 -50 45 -8 98
13 16 32 15 51 -4z m-8819 -125 c19 -35 19 -53 0 -69 -20 -16 -50 -4 -63 26
-17 35 -15 61 5 72 23 14 41 5 58 -29z m8345 -54 c52 -26 65 -39 55 -55 -4 -7
-90 31 -124 56 -4 3 9 24 15 24 3 0 27 -11 54 -25z m366 -71 c7 -28 -21 -77
-48 -82 -15 -3 -48 22 -48 36 0 4 9 22 20 40 25 41 66 45 76 6z m-8216 -37 c0
-7 -25 -27 -56 -46 -45 -27 -58 -31 -65 -20 -6 10 6 23 44 46 56 35 77 40 77
20z m-376 -59 c31 -44 10 -97 -32 -84 -30 10 -55 80 -35 99 14 15 53 6 67 -15z
m8464 -139 c3 -27 -31 -79 -52 -79 -7 0 -21 9 -30 19 -15 16 -16 23 -5 43 21
40 32 49 58 46 19 -2 27 -9 29 -29z m-471 -84 c36 -24 50 -40 47 -50 -8 -20
-6 -20 -66 22 -29 20 -55 38 -57 39 -5 4 9 24 17 24 4 0 31 -16 59 -35z
m-7878 15 c28 -14 47 -66 31 -85 -19 -23 -46 -18 -69 11 -24 30 -27 54 -9 72
15 15 24 15 47 2z m503 -123 c-6 -7 -32 -28 -57 -46 -38 -27 -46 -30 -51 -16
-4 9 -5 17 -3 19 78 60 104 75 112 67 7 -7 6 -15 -1 -24z m7706 -29 c2 -19 -5
-36 -22 -53 -29 -29 -39 -31 -60 -9 -21 21 -20 36 5 68 29 37 73 33 77 -6z
m-8048 -80 c45 -48 6 -115 -42 -72 -32 29 -40 51 -28 74 14 26 44 25 70 -2z
m7894 -120 c8 -14 7 -24 -6 -45 -23 -39 -44 -50 -65 -37 -26 16 -27 46 -2 78
24 30 55 32 73 4z m-450 -31 c39 -34 46 -45 35 -54 -11 -9 -25 -1 -62 33 -27
24 -46 48 -42 54 10 16 17 12 69 -33z m-7287 -59 c25 -23 30 -57 11 -76 -19
-19 -35 -14 -63 15 -27 30 -32 52 -13 71 18 18 39 15 65 -10z m472 -11 c15
-19 -85 -105 -102 -88 -8 8 1 23 38 56 28 24 51 44 51 45 1 0 7 -6 13 -13z
m7104 -108 c15 -24 -26 -79 -58 -79 -37 0 -48 30 -24 69 15 25 25 32 46 29 14
-2 31 -10 36 -19z m-7404 -85 c24 -30 27 -54 9 -72 -19 -19 -37 -14 -63 14
-27 29 -32 53 -13 72 19 19 45 14 67 -14z m6838 -118 c-8 -23 -27 -13 -66 33
-58 69 -43 87 20 25 27 -27 48 -53 46 -58z m383 20 c18 -22 8 -57 -23 -80 -53
-39 -89 17 -43 67 28 30 48 34 66 13z m-6596 -25 c8 -12 -83 -113 -95 -105
-16 10 -10 24 32 69 42 46 53 52 63 36z m-450 -70 c30 -31 31 -57 4 -75 -13
-8 -24 -6 -45 10 -31 23 -41 58 -23 80 18 21 33 17 64 -15z m6864 -93 c18 -18
15 -39 -10 -65 -26 -28 -64 -30 -78 -4 -8 16 -5 26 16 50 27 33 52 39 72 19z
m-581 -82 c40 -51 44 -66 18 -66 -15 0 -87 99 -80 110 11 17 19 11 62 -44z
m-6098 -2 c34 -28 39 -55 16 -74 -20 -17 -58 -1 -81 35 -16 24 -16 27 1 45 23
26 27 25 64 -6z m602 -66 c-26 -49 -66 -88 -80 -79 -10 7 -4 21 29 65 30 39
46 54 53 47 7 -7 7 -18 -2 -33z m5885 -29 c21 -23 14 -41 -30 -73 -21 -16 -31
-18 -44 -10 -29 19 -26 49 8 78 38 31 42 32 66 5z m-6279 -81 c35 -32 25 -78
-17 -78 -19 0 -70 46 -70 63 0 39 52 48 87 15z m5533 -109 c17 -31 18 -38 5
-42 -20 -8 -90 104 -72 115 13 8 33 -13 67 -73z m534 35 c25 -10 19 -56 -10
-77 -58 -43 -105 17 -48 62 29 23 34 24 58 15z m-5284 -41 c0 -18 -64 -113
-76 -113 -21 0 -18 12 18 73 19 32 38 53 45 50 7 -3 13 -7 13 -10z m-575 -48
c29 -28 31 -38 9 -59 -21 -21 -36 -20 -68 5 -24 19 -35 57 -19 72 14 15 55 6
78 -18z m5665 -100 c0 -18 -10 -31 -32 -45 -28 -17 -35 -18 -53 -6 -30 20 -24
47 14 73 40 27 71 17 71 -22z m-752 -52 c26 -50 29 -62 17 -67 -21 -8 -83 113
-64 125 8 4 14 7 15 6 1 -1 16 -30 32 -64z m-4703 11 c29 -19 33 -55 9 -75
-13 -11 -21 -10 -50 6 -38 20 -52 49 -34 70 16 20 45 19 75 -1z m765 -18 c0
-4 -51 -118 -55 -124 -1 -1 -9 0 -18 4 -14 5 -12 14 13 65 17 32 37 59 45 59
8 0 15 -2 15 -4z m4465 -80 c0 -23 -8 -34 -33 -49 -31 -19 -34 -19 -52 -2 -26
23 -25 31 5 61 17 17 34 24 53 22 23 -2 27 -8 27 -32z m-4998 -50 c23 -20 26
-28 17 -43 -18 -29 -60 -28 -89 1 -21 21 -24 29 -15 46 15 27 53 25 87 -4z
m4049 -23 c25 -60 29 -93 12 -93 -9 0 -24 23 -37 59 -25 69 -25 71 -6 71 8 0
22 -17 31 -37z m-3119 -78 c-16 -49 -26 -65 -40 -65 -11 0 -17 5 -14 13 3 6
14 36 23 65 12 36 23 52 35 52 16 0 16 -5 -4 -65z m3843 40 c29 -35 -38 -98
-80 -75 -30 16 -26 56 8 74 35 19 56 20 72 1z m-4561 -50 c45 -23 51 -67 11
-80 -16 -5 -80 18 -80 29 0 3 -3 11 -6 19 -5 15 20 47 37 47 6 0 23 -7 38 -15z
m3412 -82 c17 -61 17 -63 -1 -63 -13 0 -21 13 -29 48 -7 26 -14 55 -17 65 -5
14 -1 18 12 15 12 -2 23 -23 35 -65z m-2257 -31 c-7 -31 -13 -60 -14 -64 0 -5
-7 -8 -15 -8 -18 0 -19 20 -4 75 16 63 17 65 33 59 12 -5 12 -13 0 -62z m3177
36 c10 -19 8 -25 -16 -45 -32 -28 -72 -27 -89 0 -9 15 -6 23 17 43 35 30 72
31 88 2z m-4083 -44 c28 -20 29 -60 1 -69 -27 -9 -77 12 -84 37 -14 42 39 63
83 32z m2718 -60 c10 -58 9 -64 -6 -64 -13 0 -20 14 -27 63 -8 44 -7 64 0 69
17 10 21 2 33 -68z m-1362 -8 c-8 -68 -11 -76 -30 -76 -13 0 -15 7 -9 43 13
87 16 96 31 90 11 -4 13 -17 8 -57z m2481 18 c23 -23 15 -45 -22 -67 -34 -20
-67 -16 -77 8 -9 24 5 46 38 61 40 17 42 17 61 -2z m-2025 -33 c0 -59 -11
-101 -26 -101 -15 0 -19 53 -8 109 9 46 34 40 34 -8z m452 -23 c3 -59 -5 -83
-24 -72 -4 3 -8 34 -8 70 0 48 3 64 14 64 10 0 15 -17 18 -62z m-2029 13 c30
-12 40 -36 26 -63 -9 -16 -17 -19 -42 -14 -33 7 -67 32 -67 51 0 31 38 43 83
26z m3365 -73 c3 -23 -3 -31 -33 -45 -27 -13 -40 -15 -53 -7 -45 29 -7 88 53
82 24 -2 31 -8 33 -30z m-3129 -9 c44 -16 57 -43 31 -69 -16 -16 -24 -18 -47
-9 -54 20 -66 44 -37 73 18 19 14 19 53 5z m2879 -72 c3 -23 -2 -30 -33 -42
-40 -17 -75 -7 -75 23 0 36 26 52 75 49 25 -2 31 -7 33 -30z m-2590 -21 c17
-17 8 -51 -15 -60 -25 -10 -81 13 -88 35 -10 32 14 52 54 45 19 -3 41 -12 49
-20z m2323 -16 c43 -23 5 -80 -53 -80 -56 0 -52 72 5 83 12 2 23 5 25 6 2 0
12 -4 23 -9z m-2087 -30 c31 -12 36 -54 8 -69 -20 -11 -59 -5 -79 12 -14 10
-18 49 -6 60 9 10 48 8 77 -3z m1844 -49 c5 -29 -20 -51 -58 -51 -29 0 -50 16
-50 40 0 28 23 41 65 38 34 -3 41 -7 43 -27z m-1564 -14 c22 -35 -18 -66 -70
-53 -64 17 -39 91 26 77 18 -3 38 -14 44 -24z m1306 -17 c15 -27 -10 -52 -54
-54 -69 -2 -77 62 -10 75 36 7 52 2 64 -21z m-1046 -12 c28 -45 -61 -80 -98
-39 -14 16 -15 23 -6 41 9 17 19 21 52 18 26 -2 45 -10 52 -20z m514 0 c35
-35 -9 -93 -65 -86 -25 3 -28 7 -28 38 0 27 6 37 25 47 32 16 53 16 68 1z
m270 -16 c5 -32 -15 -52 -52 -52 -35 0 -56 15 -56 40 0 28 23 41 65 38 33 -2
41 -7 43 -26z m-530 6 c7 -7 12 -21 12 -33 0 -41 -46 -59 -91 -35 -19 10 -27
59 -12 73 11 12 78 8 91 -5z"/>
<path d="M7270 11880 c-567 -29 -1147 -183 -1664 -442 -626 -313 -1207 -821
-1598 -1398 -589 -867 -834 -1885 -702 -2915 125 -979 596 -1893 1316 -2556
710 -654 1576 -1038 2523 -1119 175 -14 566 -12 751 5 837 77 1653 418 2304
964 805 674 1332 1616 1479 2646 61 430 52 911 -25 1340 -117 657 -384 1266
-789 1800 -127 168 -189 240 -354 408 -349 356 -715 620 -1166 842 -524 257
-1025 387 -1645 425 -178 11 -210 11 -430 0z m-1050 -4140 l0 -500 293 -2 292
-3 3 -62 3 -63 -361 0 -360 0 0 565 0 565 65 0 65 0 0 -500z m1420 -32 c0
-316 -4 -547 -10 -568 -38 -136 -164 -238 -318 -257 l-53 -6 3 64 3 64 44 7
c86 15 163 79 190 157 8 24 11 191 11 552 l0 519 65 0 65 0 0 -532z m1240 472
l0 -60 -280 0 -280 0 0 -190 0 -190 250 0 250 0 0 -60 0 -60 -250 0 -250 0 0
-255 0 -255 -65 0 -65 0 0 565 0 565 345 0 345 0 0 -60z"/>
</g>
</svg>
